<svg version="1.1" id="Layer_1" xmlns="http://www.w3.org/2000/svg" xmlns:xlink="http://www.w3.org/1999/xlink" x="0px" y="0px"
	 width="100%" viewBox="0 0 675 675" enable-background="new 0 0 675 675" xml:space="preserve">
<path fill="#000000" opacity="1.000000" stroke="none" 
	d="
M1.000000,246.000000 
	C1.000000,164.000000 1.000000,82.500000 1.000000,1.000000 
	C226.000000,1.000000 451.000000,1.000000 676.000000,1.000000 
	C676.000000,226.000000 676.000000,451.000000 676.000000,676.000000 
	C451.000000,676.000000 226.000000,676.000000 1.000000,676.000000 
	C1.000000,532.833313 1.000000,389.666656 1.000000,246.000000 
M69.500061,26.298368 
	C49.800156,26.298368 30.100252,26.298368 8.916014,26.298368 
	C11.687147,29.678558 13.594391,31.839838 15.320647,34.137119 
	C27.718801,50.636433 40.096149,67.151443 52.449921,83.684036 
	C77.263275,116.890831 102.036751,150.127457 126.865242,183.322922 
	C151.897263,216.790482 176.972000,250.226105 202.035446,283.670135 
	C223.496201,312.306854 244.986481,340.921478 266.348114,369.631927 
	C267.035706,370.556030 267.030884,372.844879 266.354797,373.774933 
	C264.317108,376.578125 261.840210,379.073639 259.442169,381.601471 
	C241.220093,400.809540 222.862137,419.890137 204.764908,439.214966 
	C176.192490,469.725525 147.845825,500.447357 119.291679,530.975098 
	C106.090324,545.088928 92.553261,558.888184 79.295082,572.949524 
	C57.019104,596.574951 34.836220,620.288208 12.655221,644.002869 
	C11.708261,645.015320 11.173246,646.413025 10.446333,647.631287 
	C11.897597,648.170227 13.347583,649.172607 14.800325,649.176636 
	C29.627163,649.217590 44.458988,649.264038 59.277382,648.863708 
	C61.910351,648.792542 65.017853,647.240295 66.987900,645.392761 
	C72.077896,640.619324 76.669022,635.311890 81.433472,630.193604 
	C103.221855,606.786804 125.005615,583.375732 146.782730,559.958496 
	C167.424103,537.762512 187.989136,515.495056 208.708923,493.372559 
	C230.345291,470.271362 252.147293,447.325409 273.830383,424.267853 
	C279.836243,417.881317 285.676544,411.339050 291.806274,404.634766 
	C293.047821,405.785004 294.140930,406.548859 294.917328,407.556671 
	C300.705292,415.069794 306.452026,422.614990 312.170990,430.180908 
	C324.317230,446.249817 336.523529,462.274292 348.548309,478.433746 
	C362.653595,497.389130 376.531860,516.513306 390.620361,535.481262 
	C404.219574,553.790588 417.990295,571.972412 431.631775,590.250488 
	C445.170959,608.391479 458.519409,626.677429 472.301758,644.630981 
	C474.009064,646.854980 477.860260,648.580566 480.728882,648.596558 
	C540.556519,648.930237 600.385681,648.993530 660.214661,649.035950 
	C661.727600,649.037048 663.241272,648.200806 664.754578,647.755005 
	C664.146240,646.334106 663.799866,644.711670 662.887146,643.524841 
	C656.700256,635.480713 650.245728,627.639709 644.155945,619.524231 
	C630.080811,600.767273 616.193604,581.869385 602.170776,563.072998 
	C594.114929,552.274841 585.869568,541.617737 577.840088,530.800232 
	C564.852173,513.302490 552.071167,495.650421 539.019531,478.200592 
	C524.164734,458.340088 509.026093,438.692017 494.161346,418.838928 
	C475.308899,393.659973 456.631927,368.349731 437.833069,343.130554 
	C425.604675,326.725830 413.312225,310.368652 400.998444,294.027924 
	C399.315491,291.794647 399.270721,290.188019 401.375000,288.020691 
	C409.720062,279.425415 417.900818,270.668915 426.064728,261.899750 
	C452.618439,233.377533 479.114868,204.801941 505.676880,176.287460 
	C533.944092,145.942429 562.171448,115.559441 590.588928,85.355545 
	C608.262573,66.570908 626.265076,48.095764 644.076721,29.440390 
	C644.774231,28.709856 645.022705,27.550579 645.632141,26.273020 
	C644.372864,25.930048 643.605713,25.533354 642.842468,25.540890 
	C626.679810,25.700506 610.513245,25.766230 594.360046,26.261042 
	C592.091675,26.330526 589.428467,28.097296 587.734619,29.842064 
	C579.853577,37.959999 572.282715,46.377930 564.539429,54.630917 
	C542.660583,77.950058 520.663696,101.159065 498.878723,124.565468 
	C475.857574,149.300064 453.125397,174.303772 430.081238,199.016708 
	C412.708252,217.647766 395.002014,235.967728 377.551453,254.527084 
	C374.993774,257.247314 373.261932,257.143555 371.346100,254.125870 
	C370.545471,252.864777 369.612213,251.686096 368.713348,250.489380 
	C356.125092,233.730423 343.531464,216.975449 330.940918,200.218201 
	C323.447754,190.245224 315.925934,180.293579 308.473938,170.289917 
	C298.339325,156.685059 288.304657,143.005585 278.144806,129.419678 
	C263.203705,109.440269 248.184143,89.519569 233.209061,69.565559 
	C223.217560,56.252090 213.363022,42.832439 203.133530,29.704712 
	C201.652023,27.803453 198.417252,26.263489 195.987991,26.255165 
	C154.159225,26.111828 112.329552,26.235441 69.500061,26.298368 
z"/>
<path fill="#FCFCFC" opacity="1.000000" stroke="none" 
	d="
M70.000069,26.299454 
	C112.329552,26.235441 154.159225,26.111828 195.987991,26.255165 
	C198.417252,26.263489 201.652023,27.803453 203.133530,29.704712 
	C213.363022,42.832439 223.217560,56.252090 233.209061,69.565559 
	C248.184143,89.519569 263.203705,109.440269 278.144806,129.419678 
	C288.304657,143.005585 298.339325,156.685059 308.473938,170.289917 
	C315.925934,180.293579 323.447754,190.245224 330.940918,200.218201 
	C343.531464,216.975449 356.125092,233.730423 368.713348,250.489380 
	C369.612213,251.686096 370.545471,252.864777 371.346100,254.125870 
	C373.261932,257.143555 374.993774,257.247314 377.551453,254.527084 
	C395.002014,235.967728 412.708252,217.647766 430.081238,199.016708 
	C453.125397,174.303772 475.857574,149.300064 498.878723,124.565468 
	C520.663696,101.159065 542.660583,77.950058 564.539429,54.630917 
	C572.282715,46.377930 579.853577,37.959999 587.734619,29.842064 
	C589.428467,28.097296 592.091675,26.330526 594.360046,26.261042 
	C610.513245,25.766230 626.679810,25.700506 642.842468,25.540890 
	C643.605713,25.533354 644.372864,25.930048 645.632141,26.273020 
	C645.022705,27.550579 644.774231,28.709856 644.076721,29.440390 
	C626.265076,48.095764 608.262573,66.570908 590.588928,85.355545 
	C562.171448,115.559441 533.944092,145.942429 505.676880,176.287460 
	C479.114868,204.801941 452.618439,233.377533 426.064728,261.899750 
	C417.900818,270.668915 409.720062,279.425415 401.375000,288.020691 
	C399.270721,290.188019 399.315491,291.794647 400.998444,294.027924 
	C413.312225,310.368652 425.604675,326.725830 437.833069,343.130554 
	C456.631927,368.349731 475.308899,393.659973 494.161346,418.838928 
	C509.026093,438.692017 524.164734,458.340088 539.019531,478.200592 
	C552.071167,495.650421 564.852173,513.302490 577.840088,530.800232 
	C585.869568,541.617737 594.114929,552.274841 602.170776,563.072998 
	C616.193604,581.869385 630.080811,600.767273 644.155945,619.524231 
	C650.245728,627.639709 656.700256,635.480713 662.887146,643.524841 
	C663.799866,644.711670 664.146240,646.334106 664.754578,647.755005 
	C663.241272,648.200806 661.727600,649.037048 660.214661,649.035950 
	C600.385681,648.993530 540.556519,648.930237 480.728882,648.596558 
	C477.860260,648.580566 474.009064,646.854980 472.301758,644.630981 
	C458.519409,626.677429 445.170959,608.391479 431.631775,590.250488 
	C417.990295,571.972412 404.219574,553.790588 390.620361,535.481262 
	C376.531860,516.513306 362.653595,497.389130 348.548309,478.433746 
	C336.523529,462.274292 324.317230,446.249817 312.170990,430.180908 
	C306.452026,422.614990 300.705292,415.069794 294.917328,407.556671 
	C294.140930,406.548859 293.047821,405.785004 291.806274,404.634766 
	C285.676544,411.339050 279.836243,417.881317 273.830383,424.267853 
	C252.147293,447.325409 230.345291,470.271362 208.708923,493.372559 
	C187.989136,515.495056 167.424103,537.762512 146.782730,559.958496 
	C125.005615,583.375732 103.221855,606.786804 81.433472,630.193604 
	C76.669022,635.311890 72.077896,640.619324 66.987900,645.392761 
	C65.017853,647.240295 61.910351,648.792542 59.277382,648.863708 
	C44.458988,649.264038 29.627163,649.217590 14.800325,649.176636 
	C13.347583,649.172607 11.897597,648.170227 10.446333,647.631287 
	C11.173246,646.413025 11.708261,645.015320 12.655221,644.002869 
	C34.836220,620.288208 57.019104,596.574951 79.295082,572.949524 
	C92.553261,558.888184 106.090324,545.088928 119.291679,530.975098 
	C147.845825,500.447357 176.192490,469.725525 204.764908,439.214966 
	C222.862137,419.890137 241.220093,400.809540 259.442169,381.601471 
	C261.840210,379.073639 264.317108,376.578125 266.354797,373.774933 
	C267.030884,372.844879 267.035706,370.556030 266.348114,369.631927 
	C244.986481,340.921478 223.496201,312.306854 202.035446,283.670135 
	C176.972000,250.226105 151.897263,216.790482 126.865242,183.322922 
	C102.036751,150.127457 77.263275,116.890831 52.449921,83.684036 
	C40.096149,67.151443 27.718801,50.636433 15.320647,34.137119 
	C13.594391,31.839838 11.687147,29.678558 8.916014,26.298368 
	C30.100252,26.298368 49.800156,26.298368 70.000069,26.299454 
M156.332977,154.143875 
	C168.500137,170.189651 180.759460,186.166565 192.811966,202.298004 
	C209.147888,224.162445 225.287613,246.173355 241.580994,268.069733 
	C259.059204,291.558441 276.615936,314.988739 294.142120,338.441772 
	C313.566711,364.435211 332.937500,390.469147 352.441956,416.402557 
	C366.536438,435.142792 380.861481,453.709503 394.990387,472.424042 
	C408.128845,489.826630 421.186737,507.290497 434.199310,524.787476 
	C444.222260,538.264526 454.042145,551.892822 464.096344,565.346252 
	C473.160400,577.474792 482.217896,589.620789 491.741516,601.383972 
	C494.005280,604.180176 498.061035,607.077148 501.390289,607.196350 
	C517.698059,607.780151 534.038818,607.443237 550.367920,607.427124 
	C560.359375,607.417297 570.351746,607.460144 580.341431,607.319519 
	C581.857239,607.298157 583.441101,606.549255 584.797058,605.787292 
	C585.045471,605.647705 584.637573,603.595703 584.037109,602.800842 
	C573.515198,588.871765 562.826111,575.068359 552.354492,561.101929 
	C536.079773,539.395447 520.021240,517.526794 503.726074,495.835785 
	C482.029022,466.954254 460.120209,438.231750 438.438629,409.338715 
	C419.647858,384.298035 401.104248,359.071991 382.346893,334.006104 
	C361.098755,305.611694 339.695953,277.333069 318.433563,248.949280 
	C304.067139,229.771103 289.872589,210.464218 275.518097,191.277054 
	C260.859314,171.683136 246.086838,152.174301 231.386597,132.611328 
	C215.989441,112.120926 200.686295,91.559044 185.129684,71.190605 
	C183.624191,69.219437 180.630249,67.232407 178.311874,67.214203 
	C156.659882,67.044266 135.004562,67.312904 113.350082,67.432190 
	C106.629280,67.469215 99.908089,67.437950 91.724228,67.437950 
	C113.508560,96.689667 134.695236,125.138847 156.332977,154.143875 
z"/>
<path fill="#020202" opacity="1.000000" stroke="none" 
	d="
M156.107437,153.865952 
	C134.695236,125.138847 113.508560,96.689667 91.724228,67.437950 
	C99.908089,67.437950 106.629280,67.469215 113.350082,67.432190 
	C135.004562,67.312904 156.659882,67.044266 178.311874,67.214203 
	C180.630249,67.232407 183.624191,69.219437 185.129684,71.190605 
	C200.686295,91.559044 215.989441,112.120926 231.386597,132.611328 
	C246.086838,152.174301 260.859314,171.683136 275.518097,191.277054 
	C289.872589,210.464218 304.067139,229.771103 318.433563,248.949280 
	C339.695953,277.333069 361.098755,305.611694 382.346893,334.006104 
	C401.104248,359.071991 419.647858,384.298035 438.438629,409.338715 
	C460.120209,438.231750 482.029022,466.954254 503.726074,495.835785 
	C520.021240,517.526794 536.079773,539.395447 552.354492,561.101929 
	C562.826111,575.068359 573.515198,588.871765 584.037109,602.800842 
	C584.637573,603.595703 585.045471,605.647705 584.797058,605.787292 
	C583.441101,606.549255 581.857239,607.298157 580.341431,607.319519 
	C570.351746,607.460144 560.359375,607.417297 550.367920,607.427124 
	C534.038818,607.443237 517.698059,607.780151 501.390289,607.196350 
	C498.061035,607.077148 494.005280,604.180176 491.741516,601.383972 
	C482.217896,589.620789 473.160400,577.474792 464.096344,565.346252 
	C454.042145,551.892822 444.222260,538.264526 434.199310,524.787476 
	C421.186737,507.290497 408.128845,489.826630 394.990387,472.424042 
	C380.861481,453.709503 366.536438,435.142792 352.441956,416.402557 
	C332.937500,390.469147 313.566711,364.435211 294.142120,338.441772 
	C276.615936,314.988739 259.059204,291.558441 241.580994,268.069733 
	C225.287613,246.173355 209.147888,224.162445 192.811966,202.298004 
	C180.759460,186.166565 168.500137,170.189651 156.107437,153.865952 
z"/>
</svg>